<svg viewBox="0 0 64 64" fill="none" xmlns="http://www.w3.org/2000/svg">
  <g transform="rotate(45,32,32)">
    <path d="M 22,8 C 24,4 32,1 40,3 C 45,5 44,12 40,20 C 37,26 35,30 34,34 L 32,32 C 33,28 35,22 37,16 C 39,10 38,6 34,5 C 28,4 24,6 22,8 Z" fill="#f97316"/>
    <path d="M 22,8 C 24,4 32,1 40,3 C 45,5 44,12 40,20 C 37,26 35,30 34,34 L 32,32 C 33,28 35,22 37,16 C 39,10 38,6 34,5 C 28,4 24,6 22,8 Z" fill="#ea580c" transform="rotate(90,32,32)"/>
    <path d="M 22,8 C 24,4 32,1 40,3 C 45,5 44,12 40,20 C 37,26 35,30 34,34 L 32,32 C 33,28 35,22 37,16 C 39,10 38,6 34,5 C 28,4 24,6 22,8 Z" fill="#c2410c" transform="rotate(180,32,32)"/>
    <path d="M 22,8 C 24,4 32,1 40,3 C 45,5 44,12 40,20 C 37,26 35,30 34,34 L 32,32 C 33,28 35,22 37,16 C 39,10 38,6 34,5 C 28,4 24,6 22,8 Z" fill="#ea580c" transform="rotate(270,32,32)"/>
  </g>
</svg>
